<?xml version="1.0" standalone="no"?>
<!DOCTYPE svg PUBLIC "-//W3C//DTD SVG 20010904//EN"
 "http://www.w3.org/TR/2001/REC-SVG-20010904/DTD/svg10.dtd">
<svg version="1.0" xmlns="http://www.w3.org/2000/svg"
 width="276.000000pt" height="276.000000pt" viewBox="0 0 276.000000 276.000000"
 preserveAspectRatio="xMidYMid meet">
<metadata>
Created by potrace 1.11, written by Peter Selinger 2001-2013
</metadata>
<g transform="translate(0.000000,276.000000) scale(0.100000,-0.100000)"
fill="#000000" stroke="none">
<path d="M2080 2376 c-160 -42 -290 -137 -385 -284 -127 -197 -148 -463 -54
-677 20 -44 70 -125 77 -125 7 0 31 21 122 103 19 18 55 49 80 71 45 38 173
152 194 171 6 6 63 55 126 110 63 55 120 104 126 110 10 10 46 41 237 209 48
43 87 81 87 85 0 14 -101 110 -153 144 -98 65 -169 88 -292 93 -75 2 -128 -1
-165 -10z"/>
<path d="M957 2374 c-1 -1 -29 -5 -62 -8 -113 -13 -232 -50 -370 -117 -237
-114 -427 -332 -496 -571 -24 -84 -33 -251 -18 -342 25 -151 107 -313 217
-429 205 -218 489 -341 807 -351 l30 -1 3 911 2 912 -56 -2 c-30 0 -56 -2 -57
-2z"/>
<path d="M2404 1577 c-767 -592 -923 -713 -947 -734 l-29 -23 44 -44 c192
-192 511 -267 773 -181 234 77 414 268 475 503 25 100 21 260 -10 356 -31 99
-114 246 -139 246 -4 0 -79 -55 -167 -123z"/>
</g>
</svg>
