<?xml version="1.0" standalone="no"?>
<!DOCTYPE svg PUBLIC "-//W3C//DTD SVG 20010904//EN"
 "http://www.w3.org/TR/2001/REC-SVG-20010904/DTD/svg10.dtd">
<svg version="1.0" xmlns="http://www.w3.org/2000/svg"
 width="235.000000pt" height="235.000000pt" viewBox="0 0 235.000000 235.000000"
 preserveAspectRatio="xMidYMid meet">
<metadata>
Created by potrace 1.11, written by Peter Selinger 2001-2013
</metadata>
<g transform="translate(0.000000,235.000000) scale(0.100000,-0.100000)"
fill="#000000" stroke="none">
<path d="M1769 1949 c-149 -32 -291 -141 -362 -278 -59 -113 -71 -163 -72
-291 0 -123 11 -172 63 -278 36 -73 48 -81 76 -51 13 13 36 35 52 48 44 37
427 373 445 390 9 9 29 27 45 41 154 132 244 216 244 226 0 7 -26 36 -57 64
-60 54 -171 114 -233 126 -52 10 -160 11 -201 3z"/>
<path d="M837 1944 c-1 -1 -28 -4 -60 -8 -275 -29 -526 -176 -663 -387 -39
-59 -80 -148 -89 -189 -2 -8 -8 -35 -14 -60 -6 -25 -9 -90 -7 -145 9 -263 176
-505 436 -631 41 -20 82 -40 90 -44 53 -26 210 -59 303 -63 l67 -4 0 766 0
766 -30 0 c-17 1 -32 0 -33 -1z"/>
<path d="M2149 1368 c-8 -7 -70 -56 -139 -108 -110 -83 -351 -268 -435 -334
-16 -13 -104 -81 -195 -151 -91 -70 -166 -133 -168 -140 -2 -8 26 -38 61 -67
82 -67 172 -113 262 -133 17 -4 39 -9 50 -12 11 -2 54 -6 95 -7 282 -9 548
193 610 463 35 152 -10 358 -104 474 -19 24 -25 26 -37 15z"/>
</g>
</svg>
